<svg width="243" height="243" viewBox="0 0 243 243" fill="none" xmlns="http://www.w3.org/2000/svg">
<path fill-rule="evenodd" clip-rule="evenodd" d="M0 121.5C0 89.2762 12.8009 58.3722 35.5865 35.5865C58.3722 12.8009 89.2762 0 121.5 0C153.724 0 184.628 12.8009 207.413 35.5865C230.199 58.3722 243 89.2762 243 121.5C243 153.724 230.199 184.628 207.413 207.413C184.628 230.199 153.724 243 121.5 243C89.2762 243 58.3722 230.199 35.5865 207.413C12.8009 184.628 0 153.724 0 121.5ZM114.566 173.502L184.518 86.0544L171.882 75.9456L112.234 150.482L69.984 115.279L59.616 127.721L114.566 173.502Z" fill="#005148"/>
</svg>
