<svg width="55" height="49" viewBox="0 0 55 49" fill="none" xmlns="http://www.w3.org/2000/svg">
<path d="M27.5 0L55 17.7877L50.7362 20.5461V35.1292H46.0889V23.552L43.7653 25.0549V38.5974C43.7653 41.9964 41.4092 44.6438 38.5302 46.3179C35.5908 48.0219 31.6872 49 27.5 49C23.3128 49 19.4068 48.0219 16.4698 46.3179C13.5885 44.6438 11.2347 41.9941 11.2347 38.5951V25.0549L0 17.7877L27.5 0ZM15.8819 28.0608V38.5974C15.8819 39.668 16.6487 41.0646 18.812 42.3201C20.9218 43.5455 23.9867 44.3779 27.5 44.3779C31.0133 44.3779 34.0782 43.5455 36.188 42.3201C38.3536 41.0646 39.1158 39.668 39.1158 38.5974V28.0608L27.4977 35.5754L15.8819 28.0608ZM46.4723 17.7877L27.5 5.51689L8.52767 17.7877L27.5 30.0585L46.4723 17.7877Z" fill="white"/>
</svg>
