<svg xmlns="http://www.w3.org/2000/svg" width="95" height="88" viewBox="0 0 95 88">
  <defs>
    <style>
      .cls-1 {
        fill: #fff;
      }

      .cls-2 {
        fill: #78ddac;
      }
    </style>
  </defs>
  <rect class="cls-1" x="-1" width="96" height="88"/>
  <rect class="cls-2" x="80" y="40" width="8" height="8"/>
  <rect id="Rectangle_1_copy" data-name="Rectangle 1 copy" class="cls-2" x="72" y="48" width="8" height="8"/>
  <rect id="Rectangle_1_copy_2" data-name="Rectangle 1 copy 2" class="cls-2" x="72" y="32" width="8" height="8"/>
  <rect id="Rectangle_1_copy_3" data-name="Rectangle 1 copy 3" class="cls-2" x="64" y="24" width="8" height="8"/>
  <rect id="Rectangle_1_copy_6" data-name="Rectangle 1 copy 6" class="cls-2" x="56" y="16" width="8" height="8"/>
  <rect id="Rectangle_1_copy_29" data-name="Rectangle 1 copy 29" class="cls-2" x="48" y="8" width="8" height="8"/>
  <rect id="Rectangle_1_copy_7" data-name="Rectangle 1 copy 7" class="cls-2" x="56" y="32" width="8" height="8"/>
  <rect id="Rectangle_1_copy_8" data-name="Rectangle 1 copy 8" class="cls-2" x="56" y="48" width="8" height="8"/>
  <rect id="Rectangle_1_copy_9" data-name="Rectangle 1 copy 9" class="cls-2" x="56" y="64" width="8" height="8"/>
  <rect id="Rectangle_1_copy_11" data-name="Rectangle 1 copy 11" class="cls-2" x="48" y="72" width="8" height="8"/>
  <rect id="Rectangle_1_copy_12" data-name="Rectangle 1 copy 12" class="cls-2" x="40" y="48" width="8" height="8"/>
  <rect id="Rectangle_1_copy_13" data-name="Rectangle 1 copy 13" class="cls-2" x="40" y="32" width="8" height="8"/>
  <rect id="Rectangle_1_copy_15" data-name="Rectangle 1 copy 15" class="cls-2" x="48" y="24" width="8" height="8"/>
  <rect id="Rectangle_1_copy_16" data-name="Rectangle 1 copy 16" class="cls-2" x="32" y="24" width="8" height="8"/>
  <rect id="Rectangle_1_copy_17" data-name="Rectangle 1 copy 17" class="cls-2" x="32" y="56" width="8" height="8"/>
  <rect id="Rectangle_1_copy_14" data-name="Rectangle 1 copy 14" class="cls-2" x="40" y="16" width="8" height="8"/>
  <rect id="Rectangle_1_copy_28" data-name="Rectangle 1 copy 28" class="cls-2" x="32" y="8" width="8" height="8"/>
  <rect id="Rectangle_1_copy_21" data-name="Rectangle 1 copy 21" class="cls-2" x="24" y="64" width="8" height="8"/>
  <rect id="Rectangle_1_copy_22" data-name="Rectangle 1 copy 22" class="cls-2" x="40" y="64" width="8" height="8"/>
  <rect id="Rectangle_1_copy_25" data-name="Rectangle 1 copy 25" class="cls-2" x="32" y="72" width="8" height="8"/>
  <rect id="Rectangle_1_copy_26" data-name="Rectangle 1 copy 26" class="cls-2" x="16" y="72" width="8" height="8"/>
  <rect id="Rectangle_1_copy_24" data-name="Rectangle 1 copy 24" class="cls-2" x="48" y="56" width="8" height="8"/>
  <rect id="Rectangle_1_copy_23" data-name="Rectangle 1 copy 23" class="cls-2" x="48" y="40" width="8" height="8"/>
  <rect id="Rectangle_1_copy_19" data-name="Rectangle 1 copy 19" class="cls-2" x="24" y="16" width="8" height="8"/>
  <rect id="Rectangle_1_copy_27" data-name="Rectangle 1 copy 27" class="cls-2" x="16" y="8" width="8" height="8"/>
  <rect id="Rectangle_1_copy_4" data-name="Rectangle 1 copy 4" class="cls-2" x="64" y="40" width="8" height="8"/>
  <rect id="Rectangle_1_copy_5" data-name="Rectangle 1 copy 5" class="cls-2" x="64" y="56" width="8" height="8"/>
</svg>
