<svg width="34" height="34" viewBox="0 0 34 34" fill="none" xmlns="http://www.w3.org/2000/svg">
<g clip-path="url(#clip0_0_453)">
<path d="M1.67565 18.6183L14.2039 18.7233C16.0827 18.0942 18.0414 17.6462 20.0972 17.3936C17.3261 18.557 14.6362 19.8771 12.2005 21.6875L11.1917 22.4788C10.4731 23.0737 9.78005 23.7179 9.118 24.422L17.239 21.8328C18.8062 20.1931 20.564 18.6968 22.5428 17.3488C19.7051 20.6232 17.1538 24.0828 15.7543 28.2868C20.3561 22.7429 25.4711 17.6796 32.6202 14.5218L10.681 11.0118C14.697 13.6519 19.1584 14.8183 23.7259 15.6317C20.5967 15.8673 17.5868 15.6807 14.6526 15.1199L1.67565 18.6183Z" fill="black"/>
</g>
<defs>
<clipPath id="clip0_0_453">
<rect width="24" height="24" fill="white" transform="translate(0 19.2891) rotate(-53.4862)"/>
</clipPath>
</defs>
</svg>
