<svg width="40" height="40" viewBox="0 0 40 40" fill="none" xmlns="http://www.w3.org/2000/svg">
<rect x="0.5" y="0.5" width="39" height="39" rx="19.5" stroke="#9C9C9C"/>
<g clip-path="url(#clip0_10_72)">
<path d="M12.7007 32V15.8072H7.31852V32H12.7007ZM10.0103 13.595C11.8871 13.595 13.0554 12.3516 13.0554 10.7978C13.0204 9.20887 11.8872 7.99997 10.0459 7.99997C8.20489 7.99997 7.00098 9.2089 7.00098 10.7978C7.00098 12.3517 8.16894 13.595 9.97515 13.595H10.0101H10.0103ZM15.6797 32H21.0618V22.9572C21.0618 22.4732 21.0968 21.9897 21.2389 21.6438C21.628 20.6768 22.5136 19.6754 24.0003 19.6754C25.9479 19.6754 26.7271 21.1603 26.7271 23.3371V31.9999H32.1089V22.7151C32.1089 17.7413 29.4536 15.4271 25.9125 15.4271C23.009 15.4271 21.7342 17.05 21.026 18.1554H21.0619V15.8069H15.6798C15.7504 17.3263 15.6798 31.9997 15.6798 31.9997L15.6797 32Z" fill="black"/>
</g>
<path d="M39 20C39 9.50659 30.4934 1 20 1C9.50659 1 1 9.50659 1 20C1 30.4934 9.50659 39 20 39C30.4934 39 39 30.4934 39 20Z" fill="white"/>
<path fill-rule="evenodd" clip-rule="evenodd" d="M29.298 20.2159C29.298 19.5423 29.2375 18.8946 29.1253 18.2728H20.178V21.9475H25.2907C25.0705 23.135 24.4012 24.1412 23.395 24.8148V27.1985H26.4653C28.2616 25.5446 29.298 23.1091 29.298 20.2159Z" fill="#4285F4"/>
<path fill-rule="evenodd" clip-rule="evenodd" d="M20.1777 29.5C22.7427 29.5 24.8931 28.6493 26.465 27.1984L23.3947 24.8147C22.544 25.3847 21.4559 25.7215 20.1777 25.7215C17.7034 25.7215 15.609 24.0504 14.862 21.8049H11.6881V24.2663C13.2513 27.3711 16.464 29.5 20.1777 29.5Z" fill="#34A853"/>
<path fill-rule="evenodd" clip-rule="evenodd" d="M14.8623 21.805C14.6723 21.235 14.5644 20.6261 14.5644 20C14.5644 19.3738 14.6723 18.765 14.8623 18.195V15.7336H11.6884C11.045 17.0161 10.678 18.467 10.678 20C10.678 21.5329 11.045 22.9838 11.6884 24.2663L14.8623 21.805Z" fill="#FBBC05"/>
<path fill-rule="evenodd" clip-rule="evenodd" d="M20.1777 14.2784C21.5724 14.2784 22.8247 14.7577 23.8093 15.6991L26.534 12.9743C24.8888 11.4414 22.7384 10.5 20.1777 10.5C16.464 10.5 13.2513 12.6289 11.6881 15.7336L14.862 18.195C15.609 15.9496 17.7034 14.2784 20.1777 14.2784Z" fill="#EA4335"/>
<defs>
<clipPath id="clip0_10_72">
<rect width="25.11" height="24" fill="white" transform="translate(7 8)"/>
</clipPath>
</defs>
</svg>
