<svg width="25" height="25" viewBox="0 0 25 25" fill="none" xmlns="http://www.w3.org/2000/svg">
<path d="M23.1089 12.8161C23.1089 12.0314 23.0384 11.277 22.9077 10.5527H12.4863V14.8329H18.4414C18.1849 16.2161 17.4053 17.388 16.2334 18.1726V20.9489H19.8094C21.9018 19.0226 23.1089 16.1859 23.1089 12.8161Z" fill="#4285F4"/>
<path d="M12.4859 23.6307C15.4734 23.6307 17.9782 22.6399 19.809 20.9499L16.2329 18.1736C15.2421 18.8375 13.9746 19.2298 12.4859 19.2298C9.6039 19.2298 7.16454 17.2834 6.29442 14.668H2.59766V17.5348C4.41837 21.1511 8.1604 23.6307 12.4859 23.6307Z" fill="#34A853"/>
<path d="M6.29361 14.6664C6.07231 14.0024 5.94657 13.2933 5.94657 12.564C5.94657 11.8347 6.07231 11.1255 6.29361 10.4616V7.59473H2.59685C1.82229 9.13666 1.41924 10.8384 1.41992 12.564C1.41992 14.3495 1.84744 16.0394 2.59685 17.5332L6.29361 14.6664Z" fill="#FBBC05"/>
<path d="M12.4859 5.89993C14.1104 5.89993 15.569 6.45822 16.7158 7.55467L19.8894 4.38099C17.9732 2.59548 15.4684 1.49902 12.4859 1.49902C8.1604 1.49902 4.41837 3.97862 2.59766 7.59491L6.29442 10.4618C7.16454 7.84639 9.6039 5.89993 12.4859 5.89993Z" fill="#EA4335"/>
</svg>
