<svg width="40" height="40" viewBox="0 0 40 40" fill="none" xmlns="http://www.w3.org/2000/svg">
<rect x="0.5" y="0.5" width="39" height="39" rx="19.5" stroke="#9C9C9C"/>
<g clip-path="url(#clip0_7_24)">
<path d="M12.7007 32V15.8072H7.31858V32H12.7007ZM10.0103 13.5951C11.8872 13.5951 13.0554 12.3517 13.0554 10.7978C13.0205 9.2089 11.8873 8 10.046 8C8.20495 8 7.00104 9.20893 7.00104 10.7978C7.00104 12.3517 8.169 13.5951 9.97521 13.5951H10.0102H10.0103ZM15.6797 32H21.0619V22.9572C21.0619 22.4732 21.0968 21.9898 21.239 21.6438C21.6281 20.6769 22.5136 19.6754 24.0004 19.6754C25.948 19.6754 26.7271 21.1603 26.7271 23.3371V31.9999H32.1089V22.7151C32.1089 17.7413 29.4537 15.4271 25.9125 15.4271C23.0091 15.4271 21.7343 17.05 21.0261 18.1554H21.062V15.8069H15.6798C15.7505 17.3264 15.6798 31.9997 15.6798 31.9997L15.6797 32Z" fill="black"/>
</g>
<path d="M39 20C39 9.50659 30.4934 1 20 1C9.50659 1 1 9.50659 1 20C1 30.4934 9.50659 39 20 39C30.4934 39 39 30.4934 39 20Z" fill="white"/>
<path fill-rule="evenodd" clip-rule="evenodd" d="M29.298 20.216C29.298 19.5423 29.2376 18.8946 29.1253 18.2728H20.178V21.9475H25.2907C25.0705 23.135 24.4012 24.1412 23.3951 24.8148V27.1985H26.4653C28.2617 25.5446 29.298 23.1091 29.298 20.216Z" fill="#4285F4"/>
<path fill-rule="evenodd" clip-rule="evenodd" d="M20.1776 29.4999C22.7426 29.4999 24.8931 28.6493 26.4649 27.1984L23.3947 24.8147C22.544 25.3847 21.4558 25.7215 20.1776 25.7215C17.7033 25.7215 15.609 24.0504 14.8619 21.8049H11.6881V24.2663C13.2513 27.3711 16.464 29.4999 20.1776 29.4999Z" fill="#34A853"/>
<path fill-rule="evenodd" clip-rule="evenodd" d="M14.8623 21.805C14.6723 21.235 14.5644 20.6261 14.5644 20C14.5644 19.3738 14.6723 18.765 14.8623 18.195V15.7336H11.6885C11.0451 17.0161 10.678 18.467 10.678 20C10.678 21.5329 11.0451 22.9838 11.6885 24.2663L14.8623 21.805Z" fill="#FBBC05"/>
<path fill-rule="evenodd" clip-rule="evenodd" d="M20.1776 14.2784C21.5724 14.2784 22.8247 14.7577 23.8092 15.6991L26.534 12.9743C24.8888 11.4414 22.7383 10.5 20.1776 10.5C16.464 10.5 13.2513 12.6289 11.6881 15.7336L14.8619 18.195C15.609 15.9496 17.7033 14.2784 20.1776 14.2784Z" fill="#EA4335"/>
<defs>
<clipPath id="clip0_7_24">
<rect width="25.11" height="24" fill="white" transform="translate(7 8)"/>
</clipPath>
</defs>
</svg>
