<svg width="427" height="66" viewBox="0 0 427 66" fill="none" xmlns="http://www.w3.org/2000/svg">
<path d="M0 33C0 14.7746 14.7746 0 33 0H394C412.225 0 427 14.7746 427 33C427 51.2254 412.225 66 394 66H33C14.7746 66 0 51.2254 0 33Z" fill="#4285F4"/>
<rect x="58.5" y="13.5" width="39" height="39" rx="19.5" stroke="#9C9C9C"/>
<g clip-path="url(#clip0_10_71)">
<path d="M70.7007 45V28.8072H65.3185V45H70.7007ZM68.0103 26.595C69.8871 26.595 71.0554 25.3516 71.0554 23.7978C71.0204 22.2089 69.8872 21 68.0459 21C66.2049 21 65.001 22.2089 65.001 23.7978C65.001 25.3517 66.1689 26.595 67.9752 26.595H68.0101H68.0103ZM73.6797 45H79.0618V35.9572C79.0618 35.4732 79.0968 34.9897 79.2389 34.6438C79.628 33.6768 80.5136 32.6754 82.0003 32.6754C83.9479 32.6754 84.7271 34.1603 84.7271 36.3371V44.9999H90.1089V35.7151C90.1089 30.7413 87.4536 28.4271 83.9125 28.4271C81.009 28.4271 79.7342 30.05 79.026 31.1554H79.0619V28.8069H73.6798C73.7504 30.3263 73.6798 44.9997 73.6798 44.9997L73.6797 45Z" fill="black"/>
</g>
<path d="M97 33C97 22.5066 88.4934 14 78 14C67.5066 14 59 22.5066 59 33C59 43.4934 67.5066 52 78 52C88.4934 52 97 43.4934 97 33Z" fill="white"/>
<path fill-rule="evenodd" clip-rule="evenodd" d="M87.298 33.2159C87.298 32.5423 87.2375 31.8946 87.1253 31.2728H78.178V34.9475H83.2907C83.0705 36.135 82.4012 37.1412 81.395 37.8148V40.1985H84.4653C86.2616 38.5446 87.298 36.1091 87.298 33.2159Z" fill="#4285F4"/>
<path fill-rule="evenodd" clip-rule="evenodd" d="M78.1777 42.5C80.7427 42.5 82.8931 41.6493 84.465 40.1984L81.3947 37.8147C80.544 38.3847 79.4559 38.7215 78.1777 38.7215C75.7034 38.7215 73.609 37.0504 72.862 34.8049H69.6881V37.2663C71.2513 40.3711 74.464 42.5 78.1777 42.5Z" fill="#34A853"/>
<path fill-rule="evenodd" clip-rule="evenodd" d="M72.8623 34.805C72.6723 34.235 72.5644 33.6261 72.5644 33C72.5644 32.3738 72.6723 31.765 72.8623 31.195V28.7336H69.6884C69.045 30.0161 68.678 31.467 68.678 33C68.678 34.5329 69.045 35.9838 69.6884 37.2663L72.8623 34.805Z" fill="#FBBC05"/>
<path fill-rule="evenodd" clip-rule="evenodd" d="M78.1777 27.2784C79.5724 27.2784 80.8247 27.7577 81.8093 28.6991L84.534 25.9743C82.8888 24.4414 80.7384 23.5 78.1777 23.5C74.464 23.5 71.2513 25.6289 69.6881 28.7336L72.862 31.195C73.609 28.9496 75.7034 27.2784 78.1777 27.2784Z" fill="#EA4335"/>
<path d="M107.888 32.624C107.888 30.992 108.264 29.528 109.016 28.232C109.784 26.936 110.816 25.928 112.112 25.208C113.424 24.472 114.856 24.104 116.408 24.104C118.184 24.104 119.76 24.544 121.136 25.424C122.528 26.288 123.536 27.52 124.16 29.12H120.872C120.44 28.24 119.84 27.584 119.072 27.152C118.304 26.72 117.416 26.504 116.408 26.504C115.304 26.504 114.32 26.752 113.456 27.248C112.592 27.744 111.912 28.456 111.416 29.384C110.936 30.312 110.696 31.392 110.696 32.624C110.696 33.856 110.936 34.936 111.416 35.864C111.912 36.792 112.592 37.512 113.456 38.024C114.32 38.52 115.304 38.768 116.408 38.768C117.416 38.768 118.304 38.552 119.072 38.12C119.84 37.688 120.44 37.032 120.872 36.152H124.16C123.536 37.752 122.528 38.984 121.136 39.848C119.76 40.712 118.184 41.144 116.408 41.144C114.84 41.144 113.408 40.784 112.112 40.064C110.816 39.328 109.784 38.312 109.016 37.016C108.264 35.72 107.888 34.256 107.888 32.624ZM133.099 41.216C131.851 41.216 130.723 40.936 129.715 40.376C128.707 39.8 127.915 39 127.339 37.976C126.763 36.936 126.475 35.736 126.475 34.376C126.475 33.032 126.771 31.84 127.363 30.8C127.955 29.76 128.763 28.96 129.787 28.4C130.811 27.84 131.955 27.56 133.219 27.56C134.483 27.56 135.627 27.84 136.651 28.4C137.675 28.96 138.483 29.76 139.075 30.8C139.667 31.84 139.963 33.032 139.963 34.376C139.963 35.72 139.659 36.912 139.051 37.952C138.443 38.992 137.611 39.8 136.555 40.376C135.515 40.936 134.363 41.216 133.099 41.216ZM133.099 38.84C133.803 38.84 134.459 38.672 135.067 38.336C135.691 38 136.195 37.496 136.579 36.824C136.963 36.152 137.155 35.336 137.155 34.376C137.155 33.416 136.971 32.608 136.603 31.952C136.235 31.28 135.747 30.776 135.139 30.44C134.531 30.104 133.875 29.936 133.171 29.936C132.467 29.936 131.811 30.104 131.203 30.44C130.611 30.776 130.139 31.28 129.787 31.952C129.435 32.608 129.259 33.416 129.259 34.376C129.259 35.8 129.619 36.904 130.339 37.688C131.075 38.456 131.995 38.84 133.099 38.84ZM149.339 27.56C150.379 27.56 151.307 27.776 152.123 28.208C152.955 28.64 153.603 29.28 154.067 30.128C154.531 30.976 154.763 32 154.763 33.2V41H152.051V33.608C152.051 32.424 151.755 31.52 151.163 30.896C150.571 30.256 149.763 29.936 148.739 29.936C147.715 29.936 146.899 30.256 146.291 30.896C145.699 31.52 145.403 32.424 145.403 33.608V41H142.667V27.776H145.403V29.288C145.851 28.744 146.419 28.32 147.107 28.016C147.811 27.712 148.555 27.56 149.339 27.56ZM161.445 30.008V37.328C161.445 37.824 161.557 38.184 161.781 38.408C162.021 38.616 162.421 38.72 162.981 38.72H164.661V41H162.501C161.269 41 160.325 40.712 159.669 40.136C159.013 39.56 158.685 38.624 158.685 37.328V30.008H157.125V27.776H158.685V24.488H161.445V27.776H164.661V30.008H161.445ZM168.575 26.024C168.079 26.024 167.663 25.856 167.327 25.52C166.991 25.184 166.823 24.768 166.823 24.272C166.823 23.776 166.991 23.36 167.327 23.024C167.663 22.688 168.079 22.52 168.575 22.52C169.055 22.52 169.463 22.688 169.799 23.024C170.135 23.36 170.303 23.776 170.303 24.272C170.303 24.768 170.135 25.184 169.799 25.52C169.463 25.856 169.055 26.024 168.575 26.024ZM169.919 27.776V41H167.183V27.776H169.919ZM180.183 27.56C181.223 27.56 182.151 27.776 182.967 28.208C183.799 28.64 184.447 29.28 184.911 30.128C185.375 30.976 185.607 32 185.607 33.2V41H182.895V33.608C182.895 32.424 182.599 31.52 182.007 30.896C181.415 30.256 180.607 29.936 179.583 29.936C178.559 29.936 177.743 30.256 177.135 30.896C176.543 31.52 176.247 32.424 176.247 33.608V41H173.511V27.776H176.247V29.288C176.695 28.744 177.263 28.32 177.951 28.016C178.655 27.712 179.399 27.56 180.183 27.56ZM201.073 27.776V41H198.337V39.44C197.905 39.984 197.337 40.416 196.633 40.736C195.945 41.04 195.209 41.192 194.425 41.192C193.385 41.192 192.449 40.976 191.617 40.544C190.801 40.112 190.153 39.472 189.673 38.624C189.209 37.776 188.977 36.752 188.977 35.552V27.776H191.689V35.144C191.689 36.328 191.985 37.24 192.577 37.88C193.169 38.504 193.977 38.816 195.001 38.816C196.025 38.816 196.833 38.504 197.425 37.88C198.033 37.24 198.337 36.328 198.337 35.144V27.776H201.073ZM216.803 34.064C216.803 34.56 216.771 35.008 216.707 35.408H206.603C206.683 36.464 207.075 37.312 207.779 37.952C208.483 38.592 209.347 38.912 210.371 38.912C211.843 38.912 212.883 38.296 213.491 37.064H216.443C216.043 38.28 215.315 39.28 214.259 40.064C213.219 40.832 211.923 41.216 210.371 41.216C209.107 41.216 207.971 40.936 206.963 40.376C205.971 39.8 205.187 39 204.611 37.976C204.051 36.936 203.771 35.736 203.771 34.376C203.771 33.016 204.043 31.824 204.587 30.8C205.147 29.76 205.923 28.96 206.915 28.4C207.923 27.84 209.075 27.56 210.371 27.56C211.619 27.56 212.731 27.832 213.707 28.376C214.683 28.92 215.443 29.688 215.987 30.68C216.531 31.656 216.803 32.784 216.803 34.064ZM213.947 33.2C213.931 32.192 213.571 31.384 212.867 30.776C212.163 30.168 211.291 29.864 210.251 29.864C209.307 29.864 208.499 30.168 207.827 30.776C207.155 31.368 206.755 32.176 206.627 33.2H213.947ZM243.49 27.776L239.386 41H236.506L233.842 31.232L231.178 41H228.298L224.17 27.776H226.954L229.714 38.408L232.522 27.776H235.378L238.066 38.36L240.802 27.776H243.49ZM246.926 26.024C246.43 26.024 246.014 25.856 245.678 25.52C245.342 25.184 245.174 24.768 245.174 24.272C245.174 23.776 245.342 23.36 245.678 23.024C246.014 22.688 246.43 22.52 246.926 22.52C247.406 22.52 247.814 22.688 248.15 23.024C248.486 23.36 248.654 23.776 248.654 24.272C248.654 24.768 248.486 25.184 248.15 25.52C247.814 25.856 247.406 26.024 246.926 26.024ZM248.27 27.776V41H245.534V27.776H248.27ZM255.055 30.008V37.328C255.055 37.824 255.167 38.184 255.391 38.408C255.631 38.616 256.031 38.72 256.591 38.72H258.271V41H256.111C254.879 41 253.935 40.712 253.279 40.136C252.623 39.56 252.295 38.624 252.295 37.328V30.008H250.735V27.776H252.295V24.488H255.055V27.776H258.271V30.008H255.055ZM267.632 27.56C268.64 27.56 269.536 27.776 270.32 28.208C271.12 28.64 271.744 29.28 272.192 30.128C272.656 30.976 272.888 32 272.888 33.2V41H270.176V33.608C270.176 32.424 269.88 31.52 269.288 30.896C268.696 30.256 267.888 29.936 266.864 29.936C265.84 29.936 265.024 30.256 264.416 30.896C263.824 31.52 263.528 32.424 263.528 33.608V41H260.792V23.24H263.528V29.312C263.992 28.752 264.576 28.32 265.28 28.016C266 27.712 266.784 27.56 267.632 27.56ZM294.685 29.12C294.253 28.288 293.653 27.664 292.885 27.248C292.117 26.816 291.229 26.6 290.221 26.6C289.117 26.6 288.133 26.848 287.269 27.344C286.405 27.84 285.725 28.544 285.229 29.456C284.749 30.368 284.509 31.424 284.509 32.624C284.509 33.824 284.749 34.888 285.229 35.816C285.725 36.728 286.405 37.432 287.269 37.928C288.133 38.424 289.117 38.672 290.221 38.672C291.709 38.672 292.917 38.256 293.845 37.424C294.773 36.592 295.341 35.464 295.549 34.04H289.285V31.856H298.477V33.992C298.301 35.288 297.837 36.48 297.085 37.568C296.349 38.656 295.381 39.528 294.181 40.184C292.997 40.824 291.677 41.144 290.221 41.144C288.653 41.144 287.221 40.784 285.925 40.064C284.629 39.328 283.597 38.312 282.829 37.016C282.077 35.72 281.701 34.256 281.701 32.624C281.701 30.992 282.077 29.528 282.829 28.232C283.597 26.936 284.629 25.928 285.925 25.208C287.237 24.472 288.669 24.104 290.221 24.104C291.997 24.104 293.573 24.544 294.949 25.424C296.341 26.288 297.349 27.52 297.973 29.12H294.685ZM306.911 41.216C305.663 41.216 304.535 40.936 303.527 40.376C302.519 39.8 301.727 39 301.151 37.976C300.575 36.936 300.287 35.736 300.287 34.376C300.287 33.032 300.583 31.84 301.175 30.8C301.767 29.76 302.575 28.96 303.599 28.4C304.623 27.84 305.767 27.56 307.031 27.56C308.295 27.56 309.439 27.84 310.463 28.4C311.487 28.96 312.295 29.76 312.887 30.8C313.479 31.84 313.775 33.032 313.775 34.376C313.775 35.72 313.471 36.912 312.863 37.952C312.255 38.992 311.423 39.8 310.367 40.376C309.327 40.936 308.175 41.216 306.911 41.216ZM306.911 38.84C307.615 38.84 308.271 38.672 308.879 38.336C309.503 38 310.007 37.496 310.391 36.824C310.775 36.152 310.967 35.336 310.967 34.376C310.967 33.416 310.783 32.608 310.415 31.952C310.047 31.28 309.559 30.776 308.951 30.44C308.343 30.104 307.687 29.936 306.983 29.936C306.279 29.936 305.623 30.104 305.015 30.44C304.423 30.776 303.951 31.28 303.599 31.952C303.247 32.608 303.071 33.416 303.071 34.376C303.071 35.8 303.431 36.904 304.151 37.688C304.887 38.456 305.807 38.84 306.911 38.84ZM322.216 41.216C320.968 41.216 319.84 40.936 318.832 40.376C317.824 39.8 317.032 39 316.456 37.976C315.88 36.936 315.592 35.736 315.592 34.376C315.592 33.032 315.888 31.84 316.48 30.8C317.072 29.76 317.88 28.96 318.904 28.4C319.928 27.84 321.072 27.56 322.336 27.56C323.6 27.56 324.744 27.84 325.768 28.4C326.792 28.96 327.6 29.76 328.192 30.8C328.784 31.84 329.08 33.032 329.08 34.376C329.08 35.72 328.776 36.912 328.168 37.952C327.56 38.992 326.728 39.8 325.672 40.376C324.632 40.936 323.48 41.216 322.216 41.216ZM322.216 38.84C322.92 38.84 323.576 38.672 324.184 38.336C324.808 38 325.312 37.496 325.696 36.824C326.08 36.152 326.272 35.336 326.272 34.376C326.272 33.416 326.088 32.608 325.72 31.952C325.352 31.28 324.864 30.776 324.256 30.44C323.648 30.104 322.992 29.936 322.288 29.936C321.584 29.936 320.928 30.104 320.32 30.44C319.728 30.776 319.256 31.28 318.904 31.952C318.552 32.608 318.376 33.416 318.376 34.376C318.376 35.8 318.736 36.904 319.456 37.688C320.192 38.456 321.112 38.84 322.216 38.84ZM337.112 27.56C338.136 27.56 339.04 27.768 339.824 28.184C340.624 28.584 341.248 29.088 341.696 29.696V27.776H344.456V41.216C344.456 42.432 344.2 43.512 343.688 44.456C343.176 45.416 342.432 46.168 341.456 46.712C340.496 47.256 339.344 47.528 338 47.528C336.208 47.528 334.72 47.104 333.536 46.256C332.352 45.424 331.68 44.288 331.52 42.848H334.232C334.44 43.536 334.88 44.088 335.552 44.504C336.24 44.936 337.056 45.152 338 45.152C339.104 45.152 339.992 44.816 340.664 44.144C341.352 43.472 341.696 42.496 341.696 41.216V39.008C341.232 39.632 340.6 40.16 339.8 40.592C339.016 41.008 338.12 41.216 337.112 41.216C335.96 41.216 334.904 40.928 333.944 40.352C333 39.76 332.248 38.944 331.688 37.904C331.144 36.848 330.872 35.656 330.872 34.328C330.872 33 331.144 31.824 331.688 30.8C332.248 29.776 333 28.984 333.944 28.424C334.904 27.848 335.96 27.56 337.112 27.56ZM341.696 34.376C341.696 33.464 341.504 32.672 341.12 32C340.752 31.328 340.264 30.816 339.656 30.464C339.048 30.112 338.392 29.936 337.688 29.936C336.984 29.936 336.328 30.112 335.72 30.464C335.112 30.8 334.616 31.304 334.232 31.976C333.864 32.632 333.68 33.416 333.68 34.328C333.68 35.24 333.864 36.04 334.232 36.728C334.616 37.416 335.112 37.944 335.72 38.312C336.344 38.664 337 38.84 337.688 38.84C338.392 38.84 339.048 38.664 339.656 38.312C340.264 37.96 340.752 37.448 341.12 36.776C341.504 36.088 341.696 35.288 341.696 34.376ZM350.786 23.24V41H348.05V23.24H350.786ZM366.498 34.064C366.498 34.56 366.466 35.008 366.402 35.408H356.298C356.378 36.464 356.77 37.312 357.474 37.952C358.178 38.592 359.042 38.912 360.066 38.912C361.538 38.912 362.578 38.296 363.186 37.064H366.138C365.738 38.28 365.01 39.28 363.954 40.064C362.914 40.832 361.618 41.216 360.066 41.216C358.802 41.216 357.666 40.936 356.658 40.376C355.666 39.8 354.882 39 354.306 37.976C353.746 36.936 353.466 35.736 353.466 34.376C353.466 33.016 353.738 31.824 354.282 30.8C354.842 29.76 355.618 28.96 356.61 28.4C357.618 27.84 358.77 27.56 360.066 27.56C361.314 27.56 362.426 27.832 363.402 28.376C364.378 28.92 365.138 29.688 365.682 30.68C366.226 31.656 366.498 32.784 366.498 34.064ZM363.642 33.2C363.626 32.192 363.266 31.384 362.562 30.776C361.858 30.168 360.986 29.864 359.946 29.864C359.002 29.864 358.194 30.168 357.522 30.776C356.85 31.368 356.45 32.176 356.322 33.2H363.642Z" fill="white"/>
<defs>
<clipPath id="clip0_10_71">
<rect width="25.11" height="24" fill="white" transform="translate(65 21)"/>
</clipPath>
</defs>
</svg>
