<svg width="36" height="36" viewBox="0 0 36 36" fill="none" xmlns="http://www.w3.org/2000/svg">
<g clip-path="url(#clip0_0_271)">
<path d="M23.4002 18.0002C23.4002 19.4324 22.8313 20.8059 21.8186 21.8186C20.8059 22.8313 19.4324 23.4002 18.0002 23.4002C16.568 23.4002 15.1945 22.8313 14.1818 21.8186C13.1691 20.8059 12.6002 19.4324 12.6002 18.0002C12.6002 17.6924 12.6326 17.3918 12.6884 17.1002H10.8002V24.2948C10.8002 24.7952 11.2052 25.2002 11.7056 25.2002H24.2966C24.5364 25.1997 24.7663 25.1041 24.9357 24.9344C25.1051 24.7647 25.2002 24.5346 25.2002 24.2948V17.1002H23.312C23.3678 17.3918 23.4002 17.6924 23.4002 18.0002ZM18.0002 21.6002C18.4731 21.6001 18.9413 21.5068 19.3782 21.3258C19.815 21.1447 20.2119 20.8794 20.5462 20.5449C20.8805 20.2104 21.1456 19.8134 21.3265 19.3765C21.5073 18.9396 21.6003 18.4713 21.6002 17.9984C21.6001 17.5255 21.5068 17.0573 21.3258 16.6205C21.1447 16.1836 20.8794 15.7867 20.5449 15.4525C20.2104 15.1182 19.8134 14.853 19.3765 14.6722C18.9396 14.4913 18.4713 14.3983 17.9984 14.3984C17.0434 14.3987 16.1276 14.7783 15.4525 15.4537C14.7773 16.1292 14.3982 17.0452 14.3984 18.0002C14.3987 18.9552 14.7783 19.871 15.4537 20.5462C16.1292 21.2213 17.0452 21.6005 18.0002 21.6002ZM22.3202 14.2202H24.4784C24.6218 14.2202 24.7593 14.1634 24.8609 14.0622C24.9624 13.9609 25.0197 13.8236 25.0202 13.6802V11.522C25.0202 11.3783 24.9631 11.2405 24.8615 11.1389C24.7599 11.0373 24.6221 10.9802 24.4784 10.9802H22.3202C22.1765 10.9802 22.0387 11.0373 21.9371 11.1389C21.8355 11.2405 21.7784 11.3783 21.7784 11.522V13.6802C21.7802 13.9772 22.0232 14.2202 22.3202 14.2202ZM18.0002 0.720215C13.4173 0.720215 9.02204 2.54078 5.78141 5.78141C2.54078 9.02204 0.720215 13.4173 0.720215 18.0002C0.720215 22.5832 2.54078 26.9784 5.78141 30.219C9.02204 33.4596 13.4173 35.2802 18.0002 35.2802C20.2695 35.2802 22.5165 34.8333 24.613 33.9649C26.7095 33.0965 28.6144 31.8236 30.219 30.219C31.8236 28.6144 33.0965 26.7095 33.9649 24.613C34.8333 22.5165 35.2802 20.2695 35.2802 18.0002C35.2802 15.731 34.8333 13.484 33.9649 11.3874C33.0965 9.29094 31.8236 7.38601 30.219 5.78141C28.6144 4.17681 26.7095 2.90398 24.613 2.03558C22.5165 1.16718 20.2695 0.720215 18.0002 0.720215ZM27.0002 25.0004C27.0002 26.1002 26.1002 27.0002 25.0004 27.0002H11C9.90021 27.0002 9.00021 26.1002 9.00021 25.0004V11C9.00021 9.90021 9.90021 9.00021 11 9.00021H25.0004C26.1002 9.00021 27.0002 9.90021 27.0002 11V25.0004Z" fill="#005148"/>
</g>
<defs>
<clipPath id="clip0_0_271">
<rect width="36" height="36" fill="white"/>
</clipPath>
</defs>
</svg>
