             <svg width="21" height="20" viewBox="0 0 21 20" fill="none" xmlns="http://www.w3.org/2000/svg">
<path d="M4.51833 2.41665C4.51804 2.99129 4.2895 3.54227 3.88296 3.9484C3.47643 4.35453 2.92522 4.58252 2.35058 4.58224C1.77595 4.58195 1.22496 4.3534 0.818834 3.94687C0.412708 3.54034 0.184711 2.98912 0.184998 2.41449C0.185285 1.83985 0.413834 1.28886 0.820366 0.882737C1.2269 0.476612 1.77811 0.248614 2.35275 0.248902C2.92738 0.249189 3.47837 0.477738 3.8845 0.88427C4.29062 1.2908 4.51862 1.84202 4.51833 2.41665ZM4.58333 6.18665H0.249998V19.75H4.58333V6.18665ZM11.43 6.18665H7.11833V19.75H11.3867V12.6325C11.3867 8.66749 16.5542 8.29915 16.5542 12.6325V19.75H20.8333V11.1592C20.8333 4.47498 13.185 4.72415 11.3867 8.00665L11.43 6.18665Z" fill="white"/>
</svg>
