<svg width="430" height="66" viewBox="0 0 430 66" fill="none" xmlns="http://www.w3.org/2000/svg">
<rect width="430" height="66" rx="33" fill="#2427AB"/>
<path d="M54.1456 56V39.8072H48.7635V56H54.1456ZM51.4552 37.5951C53.3321 37.5951 54.5003 36.3517 54.5003 34.7978C54.4654 33.2089 53.3322 32 51.4909 32C49.6498 32 48.4459 33.2089 48.4459 34.7978C48.4459 36.3517 49.6139 37.5951 51.4201 37.5951H51.4551H51.4552ZM57.1246 56H62.5068V46.9572C62.5068 46.4732 62.5417 45.9898 62.6839 45.6438C63.0729 44.6769 63.9585 43.6754 65.4453 43.6754C67.3929 43.6754 68.172 45.1603 68.172 47.3371V55.9999H73.5538V46.7151C73.5538 41.7413 70.8985 39.4271 67.3574 39.4271C64.454 39.4271 63.1792 41.05 62.4709 42.1554H62.5069V39.8069H57.1247C57.1954 41.3264 57.1247 55.9997 57.1247 55.9997L57.1246 56Z" fill="#2427AB"/>
<path d="M104.888 32.624C104.888 30.992 105.264 29.528 106.016 28.232C106.784 26.936 107.816 25.928 109.112 25.208C110.424 24.472 111.856 24.104 113.408 24.104C115.184 24.104 116.76 24.544 118.136 25.424C119.528 26.288 120.536 27.52 121.16 29.12H117.872C117.44 28.24 116.84 27.584 116.072 27.152C115.304 26.72 114.416 26.504 113.408 26.504C112.304 26.504 111.32 26.752 110.456 27.248C109.592 27.744 108.912 28.456 108.416 29.384C107.936 30.312 107.696 31.392 107.696 32.624C107.696 33.856 107.936 34.936 108.416 35.864C108.912 36.792 109.592 37.512 110.456 38.024C111.32 38.52 112.304 38.768 113.408 38.768C114.416 38.768 115.304 38.552 116.072 38.12C116.84 37.688 117.44 37.032 117.872 36.152H121.16C120.536 37.752 119.528 38.984 118.136 39.848C116.76 40.712 115.184 41.144 113.408 41.144C111.84 41.144 110.408 40.784 109.112 40.064C107.816 39.328 106.784 38.312 106.016 37.016C105.264 35.72 104.888 34.256 104.888 32.624ZM130.099 41.216C128.851 41.216 127.723 40.936 126.715 40.376C125.707 39.8 124.915 39 124.339 37.976C123.763 36.936 123.475 35.736 123.475 34.376C123.475 33.032 123.771 31.84 124.363 30.8C124.955 29.76 125.763 28.96 126.787 28.4C127.811 27.84 128.955 27.56 130.219 27.56C131.483 27.56 132.627 27.84 133.651 28.4C134.675 28.96 135.483 29.76 136.075 30.8C136.667 31.84 136.963 33.032 136.963 34.376C136.963 35.72 136.659 36.912 136.051 37.952C135.443 38.992 134.611 39.8 133.555 40.376C132.515 40.936 131.363 41.216 130.099 41.216ZM130.099 38.84C130.803 38.84 131.459 38.672 132.067 38.336C132.691 38 133.195 37.496 133.579 36.824C133.963 36.152 134.155 35.336 134.155 34.376C134.155 33.416 133.971 32.608 133.603 31.952C133.235 31.28 132.747 30.776 132.139 30.44C131.531 30.104 130.875 29.936 130.171 29.936C129.467 29.936 128.811 30.104 128.203 30.44C127.611 30.776 127.139 31.28 126.787 31.952C126.435 32.608 126.259 33.416 126.259 34.376C126.259 35.8 126.619 36.904 127.339 37.688C128.075 38.456 128.995 38.84 130.099 38.84ZM146.339 27.56C147.379 27.56 148.307 27.776 149.123 28.208C149.955 28.64 150.603 29.28 151.067 30.128C151.531 30.976 151.763 32 151.763 33.2V41H149.051V33.608C149.051 32.424 148.755 31.52 148.163 30.896C147.571 30.256 146.763 29.936 145.739 29.936C144.715 29.936 143.899 30.256 143.291 30.896C142.699 31.52 142.403 32.424 142.403 33.608V41H139.667V27.776H142.403V29.288C142.851 28.744 143.419 28.32 144.107 28.016C144.811 27.712 145.555 27.56 146.339 27.56ZM158.445 30.008V37.328C158.445 37.824 158.557 38.184 158.781 38.408C159.021 38.616 159.421 38.72 159.981 38.72H161.661V41H159.501C158.269 41 157.325 40.712 156.669 40.136C156.013 39.56 155.685 38.624 155.685 37.328V30.008H154.125V27.776H155.685V24.488H158.445V27.776H161.661V30.008H158.445ZM165.575 26.024C165.079 26.024 164.663 25.856 164.327 25.52C163.991 25.184 163.823 24.768 163.823 24.272C163.823 23.776 163.991 23.36 164.327 23.024C164.663 22.688 165.079 22.52 165.575 22.52C166.055 22.52 166.463 22.688 166.799 23.024C167.135 23.36 167.303 23.776 167.303 24.272C167.303 24.768 167.135 25.184 166.799 25.52C166.463 25.856 166.055 26.024 165.575 26.024ZM166.919 27.776V41H164.183V27.776H166.919ZM177.183 27.56C178.223 27.56 179.151 27.776 179.967 28.208C180.799 28.64 181.447 29.28 181.911 30.128C182.375 30.976 182.607 32 182.607 33.2V41H179.895V33.608C179.895 32.424 179.599 31.52 179.007 30.896C178.415 30.256 177.607 29.936 176.583 29.936C175.559 29.936 174.743 30.256 174.135 30.896C173.543 31.52 173.247 32.424 173.247 33.608V41H170.511V27.776H173.247V29.288C173.695 28.744 174.263 28.32 174.951 28.016C175.655 27.712 176.399 27.56 177.183 27.56ZM198.073 27.776V41H195.337V39.44C194.905 39.984 194.337 40.416 193.633 40.736C192.945 41.04 192.209 41.192 191.425 41.192C190.385 41.192 189.449 40.976 188.617 40.544C187.801 40.112 187.153 39.472 186.673 38.624C186.209 37.776 185.977 36.752 185.977 35.552V27.776H188.689V35.144C188.689 36.328 188.985 37.24 189.577 37.88C190.169 38.504 190.977 38.816 192.001 38.816C193.025 38.816 193.833 38.504 194.425 37.88C195.033 37.24 195.337 36.328 195.337 35.144V27.776H198.073ZM213.803 34.064C213.803 34.56 213.771 35.008 213.707 35.408H203.603C203.683 36.464 204.075 37.312 204.779 37.952C205.483 38.592 206.347 38.912 207.371 38.912C208.843 38.912 209.883 38.296 210.491 37.064H213.443C213.043 38.28 212.315 39.28 211.259 40.064C210.219 40.832 208.923 41.216 207.371 41.216C206.107 41.216 204.971 40.936 203.963 40.376C202.971 39.8 202.187 39 201.611 37.976C201.051 36.936 200.771 35.736 200.771 34.376C200.771 33.016 201.043 31.824 201.587 30.8C202.147 29.76 202.923 28.96 203.915 28.4C204.923 27.84 206.075 27.56 207.371 27.56C208.619 27.56 209.731 27.832 210.707 28.376C211.683 28.92 212.443 29.688 212.987 30.68C213.531 31.656 213.803 32.784 213.803 34.064ZM210.947 33.2C210.931 32.192 210.571 31.384 209.867 30.776C209.163 30.168 208.291 29.864 207.251 29.864C206.307 29.864 205.499 30.168 204.827 30.776C204.155 31.368 203.755 32.176 203.627 33.2H210.947ZM240.49 27.776L236.386 41H233.506L230.842 31.232L228.178 41H225.298L221.17 27.776H223.954L226.714 38.408L229.522 27.776H232.378L235.066 38.36L237.802 27.776H240.49ZM243.926 26.024C243.43 26.024 243.014 25.856 242.678 25.52C242.342 25.184 242.174 24.768 242.174 24.272C242.174 23.776 242.342 23.36 242.678 23.024C243.014 22.688 243.43 22.52 243.926 22.52C244.406 22.52 244.814 22.688 245.15 23.024C245.486 23.36 245.654 23.776 245.654 24.272C245.654 24.768 245.486 25.184 245.15 25.52C244.814 25.856 244.406 26.024 243.926 26.024ZM245.27 27.776V41H242.534V27.776H245.27ZM252.055 30.008V37.328C252.055 37.824 252.167 38.184 252.391 38.408C252.631 38.616 253.031 38.72 253.591 38.72H255.271V41H253.111C251.879 41 250.935 40.712 250.279 40.136C249.623 39.56 249.295 38.624 249.295 37.328V30.008H247.735V27.776H249.295V24.488H252.055V27.776H255.271V30.008H252.055ZM264.632 27.56C265.64 27.56 266.536 27.776 267.32 28.208C268.12 28.64 268.744 29.28 269.192 30.128C269.656 30.976 269.888 32 269.888 33.2V41H267.176V33.608C267.176 32.424 266.88 31.52 266.288 30.896C265.696 30.256 264.888 29.936 263.864 29.936C262.84 29.936 262.024 30.256 261.416 30.896C260.824 31.52 260.528 32.424 260.528 33.608V41H257.792V23.24H260.528V29.312C260.992 28.752 261.576 28.32 262.28 28.016C263 27.712 263.784 27.56 264.632 27.56ZM282.349 38.792H287.989V41H279.613V24.32H282.349V38.792ZM291.669 26.024C291.173 26.024 290.757 25.856 290.421 25.52C290.085 25.184 289.917 24.768 289.917 24.272C289.917 23.776 290.085 23.36 290.421 23.024C290.757 22.688 291.173 22.52 291.669 22.52C292.149 22.52 292.557 22.688 292.893 23.024C293.229 23.36 293.397 23.776 293.397 24.272C293.397 24.768 293.229 25.184 292.893 25.52C292.557 25.856 292.149 26.024 291.669 26.024ZM293.013 27.776V41H290.277V27.776H293.013ZM303.277 27.56C304.317 27.56 305.245 27.776 306.061 28.208C306.893 28.64 307.541 29.28 308.005 30.128C308.469 30.976 308.701 32 308.701 33.2V41H305.989V33.608C305.989 32.424 305.693 31.52 305.101 30.896C304.509 30.256 303.701 29.936 302.677 29.936C301.653 29.936 300.837 30.256 300.229 30.896C299.637 31.52 299.341 32.424 299.341 33.608V41H296.605V27.776H299.341V29.288C299.789 28.744 300.357 28.32 301.045 28.016C301.749 27.712 302.493 27.56 303.277 27.56ZM317.423 34.4L323.519 41H319.823L314.927 35.312V41H312.191V23.24H314.927V33.56L319.727 27.776H323.519L317.423 34.4ZM337.6 34.064C337.6 34.56 337.568 35.008 337.504 35.408H327.4C327.48 36.464 327.872 37.312 328.576 37.952C329.28 38.592 330.144 38.912 331.168 38.912C332.64 38.912 333.68 38.296 334.288 37.064H337.24C336.84 38.28 336.112 39.28 335.056 40.064C334.016 40.832 332.72 41.216 331.168 41.216C329.904 41.216 328.768 40.936 327.76 40.376C326.768 39.8 325.984 39 325.408 37.976C324.848 36.936 324.568 35.736 324.568 34.376C324.568 33.016 324.84 31.824 325.384 30.8C325.944 29.76 326.72 28.96 327.712 28.4C328.72 27.84 329.872 27.56 331.168 27.56C332.416 27.56 333.528 27.832 334.504 28.376C335.48 28.92 336.24 29.688 336.784 30.68C337.328 31.656 337.6 32.784 337.6 34.064ZM334.744 33.2C334.728 32.192 334.368 31.384 333.664 30.776C332.96 30.168 332.088 29.864 331.048 29.864C330.104 29.864 329.296 30.168 328.624 30.776C327.952 31.368 327.552 32.176 327.424 33.2H334.744ZM339.38 34.328C339.38 33 339.652 31.824 340.196 30.8C340.756 29.776 341.508 28.984 342.452 28.424C343.412 27.848 344.476 27.56 345.644 27.56C346.508 27.56 347.356 27.752 348.188 28.136C349.036 28.504 349.708 29 350.204 29.624V23.24H352.964V41H350.204V39.008C349.756 39.648 349.132 40.176 348.332 40.592C347.548 41.008 346.644 41.216 345.62 41.216C344.468 41.216 343.412 40.928 342.452 40.352C341.508 39.76 340.756 38.944 340.196 37.904C339.652 36.848 339.38 35.656 339.38 34.328ZM350.204 34.376C350.204 33.464 350.012 32.672 349.628 32C349.26 31.328 348.772 30.816 348.164 30.464C347.556 30.112 346.9 29.936 346.196 29.936C345.492 29.936 344.836 30.112 344.228 30.464C343.62 30.8 343.124 31.304 342.74 31.976C342.372 32.632 342.188 33.416 342.188 34.328C342.188 35.24 342.372 36.04 342.74 36.728C343.124 37.416 343.62 37.944 344.228 38.312C344.852 38.664 345.508 38.84 346.196 38.84C346.9 38.84 347.556 38.664 348.164 38.312C348.772 37.96 349.26 37.448 349.628 36.776C350.012 36.088 350.204 35.288 350.204 34.376ZM359.294 24.32V41H356.558V24.32H359.294ZM369.558 27.56C370.598 27.56 371.526 27.776 372.342 28.208C373.174 28.64 373.822 29.28 374.286 30.128C374.75 30.976 374.982 32 374.982 33.2V41H372.27V33.608C372.27 32.424 371.974 31.52 371.382 30.896C370.79 30.256 369.982 29.936 368.958 29.936C367.934 29.936 367.118 30.256 366.51 30.896C365.918 31.52 365.622 32.424 365.622 33.608V41H362.886V27.776H365.622V29.288C366.07 28.744 366.638 28.32 367.326 28.016C368.03 27.712 368.774 27.56 369.558 27.56Z" fill="white"/>
<path d="M68.5184 20.4167C68.5181 20.9913 68.2896 21.5423 67.883 21.9484C67.4765 22.3545 66.9253 22.5825 66.3506 22.5823C65.776 22.582 65.225 22.3534 64.8189 21.9469C64.4128 21.5404 64.1848 20.9891 64.1851 20.4145C64.1853 19.8399 64.4139 19.2889 64.8204 18.8828C65.227 18.4766 65.7782 18.2486 66.3528 18.2489C66.9274 18.2492 67.4784 18.4778 67.8846 18.8843C68.2907 19.2908 68.5187 19.842 68.5184 20.4167ZM68.5834 24.1867H64.2501V37.75H68.5834V24.1867ZM75.4301 24.1867H71.1184V37.75H75.3867V30.6325C75.3867 26.6675 80.5542 26.2992 80.5542 30.6325V37.75H84.8334V29.1592C84.8334 22.475 77.1851 22.7242 75.3867 26.0067L75.4301 24.1867Z" fill="white"/>
</svg>
