<svg width="36" height="36" viewBox="0 0 36 36" fill="none" xmlns="http://www.w3.org/2000/svg">
<path d="M17.9997 0.720215C8.45613 0.720215 0.719727 8.45662 0.719727 18.0002C0.719727 27.5438 8.45613 35.2802 17.9997 35.2802C27.5433 35.2802 35.2797 27.5438 35.2797 18.0002C35.2797 8.45662 27.5433 0.720215 17.9997 0.720215ZM13.7697 25.1624H10.2705V13.9016H13.7697V25.1624ZM11.9985 12.5192C10.8933 12.5192 10.1787 11.7362 10.1787 10.7678C10.1787 9.77961 10.9149 9.02001 12.0435 9.02001C13.1721 9.02001 13.8633 9.77961 13.8849 10.7678C13.8849 11.7362 13.1721 12.5192 11.9985 12.5192ZM26.5497 25.1624H23.0505V18.9218C23.0505 17.4692 22.5429 16.4828 21.2775 16.4828C20.3109 16.4828 19.7367 17.1506 19.4829 17.7932C19.3893 18.0218 19.3659 18.3458 19.3659 18.668V25.1606H15.8649V17.4926C15.8649 16.0868 15.8199 14.9114 15.7731 13.8998H18.8133L18.9735 15.464H19.0437C19.5045 14.7296 20.6331 13.646 22.5213 13.646C24.8235 13.646 26.5497 15.1886 26.5497 18.5042V25.1624Z" fill="#005148"/>
</svg>
