<svg width="53" height="52" viewBox="0 0 53 52" fill="none" xmlns="http://www.w3.org/2000/svg">
<g clip-path="url(#clip0_270_122)">
<path fill-rule="evenodd" clip-rule="evenodd" d="M26.5 47.125C30.2799 47.1304 33.994 46.155 37.2656 44.2975V37.375C37.2656 35.4356 36.4804 33.5756 35.0827 32.2043C33.6849 30.8329 31.7892 30.0625 29.8125 30.0625H23.1875C21.2108 30.0625 19.3151 30.8329 17.9173 32.2043C16.5196 33.5756 15.7344 35.4356 15.7344 37.375V44.2975C19.006 46.155 22.7201 47.1304 26.5 47.125ZM42.2344 37.375V40.4202C45.0987 37.4118 47.0047 33.6477 47.7179 29.5907C48.4312 25.5337 47.9207 21.3607 46.2491 17.5845C44.5776 13.8084 41.8179 10.5937 38.3093 8.33574C34.8007 6.07774 30.6961 4.87481 26.5 4.87481C22.3039 4.87481 18.1993 6.07774 14.6907 8.33574C11.1821 10.5937 8.4224 13.8084 6.75087 17.5845C5.07935 21.3607 4.56884 25.5337 5.28209 29.5907C5.99535 33.6477 7.90129 37.4118 10.7656 40.4202V37.375C10.7646 34.8621 11.5554 32.4104 13.0295 30.3555C14.5037 28.3006 16.5892 26.743 19.0005 25.896C17.7497 24.4844 16.9391 22.7496 16.6654 20.8985C16.3918 19.0474 16.6666 17.1581 17.4571 15.456C18.2477 13.7539 19.5205 12.3108 21.1239 11.2989C22.7273 10.287 24.5935 9.74894 26.5 9.74894C28.4065 9.74894 30.2727 10.287 31.8761 11.2989C33.4795 12.3108 34.7523 13.7539 35.5429 15.456C36.3334 17.1581 36.6082 19.0474 36.3346 20.8985C36.0609 22.7496 35.2503 24.4844 33.9995 25.896C36.4108 26.743 38.4963 28.3006 39.9705 30.3555C41.4446 32.4104 42.2354 34.8621 42.2344 37.375ZM26.5 52C33.5282 52 40.2686 49.2607 45.2383 44.3848C50.208 39.5088 53 32.8956 53 26C53 19.1044 50.208 12.4912 45.2383 7.61522C40.2686 2.73928 33.5282 0 26.5 0C19.4718 0 12.7314 2.73928 7.76167 7.61522C2.79196 12.4912 0 19.1044 0 26C0 32.8956 2.79196 39.5088 7.76167 44.3848C12.7314 49.2607 19.4718 52 26.5 52ZM31.4688 19.5C31.4688 20.7929 30.9453 22.0329 30.0134 22.9471C29.0816 23.8614 27.8178 24.375 26.5 24.375C25.1822 24.375 23.9184 23.8614 22.9866 22.9471C22.0547 22.0329 21.5312 20.7929 21.5312 19.5C21.5312 18.2071 22.0547 16.9671 22.9866 16.0529C23.9184 15.1386 25.1822 14.625 26.5 14.625C27.8178 14.625 29.0816 15.1386 30.0134 16.0529C30.9453 16.9671 31.4688 18.2071 31.4688 19.5Z" fill="white"/>
</g>
<defs>
<clipPath id="clip0_270_122">
<rect width="53" height="52" fill="white"/>
</clipPath>
</defs>
</svg>
