<svg width="427" height="66" viewBox="0 0 427 66" fill="none" xmlns="http://www.w3.org/2000/svg">
<path d="M0 33C0 14.7746 14.7746 0 33 0H394C412.225 0 427 14.7746 427 33C427 51.2254 412.225 66 394 66H33C14.7746 66 0 51.2254 0 33Z" fill="#005148"/>
<path d="M180.296 41.168C179.176 41.168 178.168 40.976 177.272 40.592C176.376 40.192 175.672 39.632 175.16 38.912C174.648 38.192 174.392 37.352 174.392 36.392H177.32C177.384 37.112 177.664 37.704 178.16 38.168C178.672 38.632 179.384 38.864 180.296 38.864C181.24 38.864 181.976 38.64 182.504 38.192C183.032 37.728 183.296 37.136 183.296 36.416C183.296 35.856 183.128 35.4 182.792 35.048C182.472 34.696 182.064 34.424 181.568 34.232C181.088 34.04 180.416 33.832 179.552 33.608C178.464 33.32 177.576 33.032 176.888 32.744C176.216 32.44 175.64 31.976 175.16 31.352C174.68 30.728 174.44 29.896 174.44 28.856C174.44 27.896 174.68 27.056 175.16 26.336C175.64 25.616 176.312 25.064 177.176 24.68C178.04 24.296 179.04 24.104 180.176 24.104C181.792 24.104 183.112 24.512 184.136 25.328C185.176 26.128 185.752 27.232 185.864 28.64H182.84C182.792 28.032 182.504 27.512 181.976 27.08C181.448 26.648 180.752 26.432 179.888 26.432C179.104 26.432 178.464 26.632 177.968 27.032C177.472 27.432 177.224 28.008 177.224 28.76C177.224 29.272 177.376 29.696 177.68 30.032C178 30.352 178.4 30.608 178.88 30.8C179.36 30.992 180.016 31.2 180.848 31.424C181.952 31.728 182.848 32.032 183.536 32.336C184.24 32.64 184.832 33.112 185.312 33.752C185.808 34.376 186.056 35.216 186.056 36.272C186.056 37.12 185.824 37.92 185.36 38.672C184.912 39.424 184.248 40.032 183.368 40.496C182.504 40.944 181.48 41.168 180.296 41.168ZM190.676 26.024C190.18 26.024 189.764 25.856 189.428 25.52C189.092 25.184 188.924 24.768 188.924 24.272C188.924 23.776 189.092 23.36 189.428 23.024C189.764 22.688 190.18 22.52 190.676 22.52C191.156 22.52 191.564 22.688 191.9 23.024C192.236 23.36 192.404 23.776 192.404 24.272C192.404 24.768 192.236 25.184 191.9 25.52C191.564 25.856 191.156 26.024 190.676 26.024ZM192.02 27.776V41H189.284V27.776H192.02ZM200.941 27.56C201.965 27.56 202.869 27.768 203.653 28.184C204.453 28.584 205.077 29.088 205.525 29.696V27.776H208.285V41.216C208.285 42.432 208.029 43.512 207.517 44.456C207.005 45.416 206.261 46.168 205.285 46.712C204.325 47.256 203.173 47.528 201.829 47.528C200.037 47.528 198.549 47.104 197.365 46.256C196.181 45.424 195.509 44.288 195.349 42.848H198.061C198.269 43.536 198.709 44.088 199.381 44.504C200.069 44.936 200.885 45.152 201.829 45.152C202.933 45.152 203.821 44.816 204.493 44.144C205.181 43.472 205.525 42.496 205.525 41.216V39.008C205.061 39.632 204.429 40.16 203.629 40.592C202.845 41.008 201.949 41.216 200.941 41.216C199.789 41.216 198.733 40.928 197.773 40.352C196.829 39.76 196.077 38.944 195.517 37.904C194.973 36.848 194.701 35.656 194.701 34.328C194.701 33 194.973 31.824 195.517 30.8C196.077 29.776 196.829 28.984 197.773 28.424C198.733 27.848 199.789 27.56 200.941 27.56ZM205.525 34.376C205.525 33.464 205.333 32.672 204.949 32C204.581 31.328 204.093 30.816 203.485 30.464C202.877 30.112 202.221 29.936 201.517 29.936C200.813 29.936 200.157 30.112 199.549 30.464C198.941 30.8 198.445 31.304 198.061 31.976C197.693 32.632 197.509 33.416 197.509 34.328C197.509 35.24 197.693 36.04 198.061 36.728C198.445 37.416 198.941 37.944 199.549 38.312C200.173 38.664 200.829 38.84 201.517 38.84C202.221 38.84 202.877 38.664 203.485 38.312C204.093 37.96 204.581 37.448 204.949 36.776C205.333 36.088 205.525 35.288 205.525 34.376ZM218.55 27.56C219.59 27.56 220.518 27.776 221.334 28.208C222.166 28.64 222.814 29.28 223.278 30.128C223.742 30.976 223.974 32 223.974 33.2V41H221.262V33.608C221.262 32.424 220.966 31.52 220.374 30.896C219.782 30.256 218.974 29.936 217.95 29.936C216.926 29.936 216.11 30.256 215.502 30.896C214.91 31.52 214.614 32.424 214.614 33.608V41H211.878V27.776H214.614V29.288C215.062 28.744 215.63 28.32 216.318 28.016C217.022 27.712 217.766 27.56 218.55 27.56ZM236.434 24.32V41H233.698V24.32H236.434ZM246.699 27.56C247.739 27.56 248.667 27.776 249.483 28.208C250.315 28.64 250.963 29.28 251.427 30.128C251.891 30.976 252.123 32 252.123 33.2V41H249.411V33.608C249.411 32.424 249.115 31.52 248.523 30.896C247.931 30.256 247.123 29.936 246.099 29.936C245.075 29.936 244.259 30.256 243.651 30.896C243.059 31.52 242.763 32.424 242.763 33.608V41H240.027V27.776H242.763V29.288C243.211 28.744 243.779 28.32 244.467 28.016C245.171 27.712 245.915 27.56 246.699 27.56Z" fill="white"/>
</svg>
