<svg width="60" height="61" viewBox="0 0 60 61" fill="none" xmlns="http://www.w3.org/2000/svg">
<path d="M17.2705 46.7032L25.5184 38.5883L22.7788 35.8928L14.5308 44.0077L12.9944 42.4961C12.6311 42.1387 12.1383 41.9379 11.6246 41.9379C11.1108 41.9379 10.6181 42.1387 10.2548 42.4961L2.50477 50.1211C2.14155 50.4785 1.9375 50.9633 1.9375 51.4688C1.9375 51.9743 2.14155 52.459 2.50477 52.8165L8.31727 58.5353C8.68061 58.8926 9.17333 59.0934 9.68709 59.0934C10.2008 59.0934 10.6936 58.8926 11.0569 58.5353L18.8069 50.9103C19.1701 50.5528 19.3742 50.068 19.3742 49.5625C19.3742 49.0571 19.1701 48.5723 18.8069 48.2148L17.2705 46.7032ZM9.68709 54.4921L6.61421 51.4688L11.6246 46.5392L14.6975 49.5625L9.68709 54.4921Z" fill="white"/>
<path d="M46.4998 57.1875C43.4177 57.184 40.463 55.9779 38.2836 53.8337C36.1043 51.6895 34.8784 48.7824 34.8748 45.75C34.8747 44.7535 35.0116 43.7615 35.2817 42.8011L18.499 26.2872C17.5213 26.5487 16.513 26.6833 15.4998 26.6876C13.6057 26.695 11.7388 26.2452 10.0625 25.3775C8.38629 24.5099 6.952 23.2509 5.8854 21.7109C4.8188 20.171 4.15246 18.3971 3.9448 16.5448C3.73714 14.6926 3.99451 12.8184 4.69434 11.0868L5.77546 8.37802L12.1925 14.6915C12.5613 15.0385 13.052 15.2322 13.5623 15.2322C14.0726 15.2322 14.5633 15.0385 14.9321 14.6915C15.2953 14.334 15.4994 13.8493 15.4994 13.3438C15.4994 12.8383 15.2953 12.3536 14.9321 11.9961L8.51122 5.67877L11.2683 4.61699C13.0285 3.92888 14.9334 3.67605 16.816 3.88066C18.6986 4.08527 20.5014 4.74108 22.0665 5.79061C23.6316 6.84013 24.9112 8.25133 25.7931 9.90053C26.6749 11.5497 27.1322 13.3866 27.1248 15.2501C27.1249 16.2466 26.988 17.2386 26.7179 18.199L43.5025 34.7129C44.4796 34.4516 45.4872 34.317 46.4998 34.3125C48.3938 34.3051 50.2608 34.7549 51.937 35.6226C53.6133 36.4902 55.0476 37.7492 56.1142 39.2892C57.1808 40.8291 57.8471 42.603 58.0548 44.4553C58.2624 46.3075 58.005 48.1817 57.3052 49.9133L56.226 52.6221L49.8071 46.3086C49.4384 45.9621 48.9481 45.7688 48.4382 45.7688C47.9284 45.7688 47.4381 45.9621 47.0694 46.3086C46.7059 46.6658 46.5015 47.1504 46.5012 47.6559C46.5008 48.1614 46.7045 48.6463 47.0675 49.004L53.4864 55.3194L50.7313 56.3831C49.3841 56.9084 47.9489 57.1812 46.4998 57.1875ZM19.4968 21.8762L39.7631 41.8194L39.3 42.9803C38.8463 44.0964 38.6689 45.3026 38.7825 46.4995C38.8962 47.6964 39.2976 48.8494 39.9537 49.8635C40.6098 50.8776 41.5017 51.7235 42.5557 52.3314C43.6097 52.9394 44.7956 53.2919 46.0154 53.3598L44.3278 51.7014C43.788 51.1703 43.3598 50.5398 43.0676 49.8459C42.7754 49.1521 42.6251 48.4083 42.6251 47.6573C42.6251 46.9062 42.7754 46.1625 43.0676 45.4686C43.3598 44.7747 43.788 44.1442 44.3278 43.6131C45.4347 42.572 46.907 41.991 48.4382 41.991C49.9695 41.991 51.4418 42.572 52.5487 43.6131L54.2343 45.2735C54.1649 44.0733 53.8064 42.9065 53.1882 41.8695C52.5701 40.8325 51.7101 39.9551 50.6793 39.3096C49.6485 38.6642 48.4764 38.2692 47.2599 38.1574C46.0433 38.0455 44.8172 38.22 43.6827 38.6664L42.5027 39.122L22.2365 19.1826L22.7015 18.0198C23.1548 16.9036 23.3318 15.6972 23.2179 14.5004C23.1039 13.3036 22.7022 12.1506 22.046 11.1366C21.3898 10.1226 20.4979 9.27676 19.4439 8.66884C18.3898 8.06091 17.204 7.70836 15.9842 7.6403L17.6698 9.29874C18.2096 9.82979 18.6379 10.4603 18.93 11.1542C19.2222 11.848 19.3726 12.5918 19.3726 13.3428C19.3726 14.0939 19.2222 14.8376 18.93 15.5315C18.6379 16.2254 18.2096 16.8559 17.6698 17.387C16.5629 18.4281 15.0907 19.0091 13.5594 19.0091C12.0281 19.0091 10.5558 18.4281 9.44897 17.387L7.76334 15.7266C7.83239 16.9268 8.19067 18.0935 8.80858 19.1305C9.42648 20.1675 10.2863 21.045 11.317 21.6905C12.3476 22.336 13.5196 22.731 14.7361 22.8428C15.9526 22.9547 17.1786 22.7801 18.313 22.3337L19.4968 21.8762Z" fill="white"/>
<path d="M56.4262 5.43293C55.3194 4.39182 53.8471 3.81079 52.3158 3.81079C50.7845 3.81079 49.3122 4.39182 48.2054 5.43293L33.7129 19.6917L36.4525 22.3871L50.945 8.12837C51.3141 7.78181 51.8046 7.58845 52.3148 7.58845C52.825 7.58845 53.3156 7.78181 53.6846 8.12837C54.0479 8.48585 54.2519 8.97062 54.2519 9.47609C54.2519 9.98156 54.0479 10.4663 53.6846 10.8238L39.1921 25.0826L41.9318 27.7799L56.4243 13.5212C57.5131 12.4479 58.1247 10.9935 58.1247 9.47704C58.1247 7.96063 57.515 6.50618 56.4262 5.43293Z" fill="white"/>
</svg>
