<svg width="38" height="38" viewBox="0 0 38 38" fill="none" xmlns="http://www.w3.org/2000/svg">
<path d="M26.8715 9.89732C26.508 9.69526 26.1082 9.5668 25.695 9.51928C25.2818 9.47175 24.8633 9.50609 24.4634 9.62033C24.0634 9.73458 23.6899 9.92649 23.3642 10.1851C23.0384 10.4437 22.7668 10.764 22.5649 11.1276L16.6859 21.7074L13.3214 18.3428C13.0292 18.0404 12.6798 17.7991 12.2935 17.6332C11.9071 17.4672 11.4916 17.3798 11.0711 17.3762C10.6507 17.3725 10.2337 17.4527 9.84451 17.6119C9.45534 17.7711 9.10178 18.0062 8.80445 18.3036C8.50712 18.6009 8.27199 18.9545 8.11276 19.3436C7.95354 19.7328 7.87342 20.1498 7.87707 20.5703C7.88073 20.9907 7.96808 21.4063 8.13404 21.7926C8.30001 22.1789 8.54125 22.5284 8.8437 22.8205L15.177 29.1538C15.7755 29.7539 16.583 30.0832 17.4159 30.0832L17.8544 30.0516C18.3398 29.9837 18.8028 29.804 19.207 29.5268C19.6111 29.2496 19.9454 28.8823 20.1835 28.454L28.1002 14.204C28.3023 13.8405 28.4309 13.4408 28.4785 13.0277C28.5261 12.6146 28.4919 12.1961 28.3778 11.7962C28.2638 11.3963 28.072 11.0227 27.8136 10.6969C27.5551 10.3711 27.235 10.0994 26.8715 9.89732Z" fill="#005148"/>
</svg>
