<svg width="25" height="25" viewBox="0 0 25 25" fill="none" xmlns="http://www.w3.org/2000/svg">
<path d="M24.695 0.304991C24.4997 0.109706 24.2348 0 23.9585 0C23.6823 0 23.4174 0.109706 23.2221 0.304991L12.5 11.0271L1.77793 0.304991C1.58259 0.109706 1.31768 0 1.04146 0C0.765245 0 0.500336 0.109706 0.304991 0.304991C0.109706 0.500336 0 0.765245 0 1.04146C0 1.31768 0.109706 1.58259 0.304991 1.77793L11.0271 12.5L0.304991 23.2221C0.109706 23.4174 0 23.6823 0 23.9585C0 24.2348 0.109706 24.4997 0.304991 24.695C0.500336 24.8903 0.765245 25 1.04146 25C1.31768 25 1.58259 24.8903 1.77793 24.695L12.5 13.9729L23.2221 24.695C23.4174 24.8903 23.6823 25 23.9585 25C24.2348 25 24.4997 24.8903 24.695 24.695C24.8903 24.4997 25 24.2348 25 23.9585C25 23.6823 24.8903 23.4174 24.695 23.2221L13.9729 12.5L24.695 1.77793C24.8903 1.58259 25 1.31768 25 1.04146C25 0.765245 24.8903 0.500336 24.695 0.304991Z" fill="black"/>
</svg>
