<svg width="27" height="5" viewBox="0 0 27 5" fill="none" xmlns="http://www.w3.org/2000/svg">
<path d="M2.7 0C1.98392 0 1.29716 0.263392 0.790811 0.732233C0.284463 1.20107 0 1.83696 0 2.5C0 3.16304 0.284463 3.79893 0.790811 4.26777C1.29716 4.73661 1.98392 5 2.7 5C3.41608 5 4.10284 4.73661 4.60919 4.26777C5.11554 3.79893 5.4 3.16304 5.4 2.5C5.4 1.83696 5.11554 1.20107 4.60919 0.732233C4.10284 0.263392 3.41608 0 2.7 0ZM10.8 2.5C10.8 1.83696 11.0845 1.20107 11.5908 0.732233C12.0972 0.263392 12.7839 0 13.5 0C14.2161 0 14.9028 0.263392 15.4092 0.732233C15.9155 1.20107 16.2 1.83696 16.2 2.5C16.2 3.16304 15.9155 3.79893 15.4092 4.26777C14.9028 4.73661 14.2161 5 13.5 5C12.7839 5 12.0972 4.73661 11.5908 4.26777C11.0845 3.79893 10.8 3.16304 10.8 2.5ZM21.6 2.5C21.6 1.83696 21.8845 1.20107 22.3908 0.732233C22.8972 0.263392 23.5839 0 24.3 0C25.0161 0 25.7028 0.263392 26.2092 0.732233C26.7155 1.20107 27 1.83696 27 2.5C27 3.16304 26.7155 3.79893 26.2092 4.26777C25.7028 4.73661 25.0161 5 24.3 5C23.5839 5 22.8972 4.73661 22.3908 4.26777C21.8845 3.79893 21.6 3.16304 21.6 2.5Z" fill="#FBBC05"/>
</svg>
