<svg width="58" height="46" viewBox="0 0 58 46" fill="none" xmlns="http://www.w3.org/2000/svg">
<path d="M6.21429 0C2.80679 0 0 3.1165 0 6.9V39.1C0 42.8835 2.80679 46 6.21429 46H51.7857C55.1932 46 58 42.8835 58 39.1V6.9C58 3.1165 55.1932 0 51.7857 0H6.21429ZM6.21429 4.6H51.7857C52.9581 4.6 53.8571 5.5982 53.8571 6.9V39.1C53.8571 40.4018 52.9581 41.4 51.7857 41.4H6.21429C5.04186 41.4 4.14286 40.4018 4.14286 39.1V6.9C4.14286 5.5982 5.04186 4.6 6.21429 4.6ZM18.6429 9.2C14.0857 9.2 10.3571 13.34 10.3571 18.4C10.3571 20.9599 11.3452 23.2691 12.8822 24.9412C11.4728 25.9982 10.3172 27.4216 9.51613 29.0875C8.71504 30.7535 8.29266 32.6115 8.28571 34.5H12.4286C12.4286 30.6636 15.1877 27.6 18.6429 27.6C22.098 27.6 24.8571 30.6636 24.8571 34.5H29C28.9931 32.6115 28.5707 30.7535 27.7696 29.0875C26.9685 27.4216 25.813 25.9982 24.4035 24.9412C25.9405 23.2691 26.9286 20.9622 26.9286 18.4C26.9286 13.34 23.2 9.2 18.6429 9.2ZM33.1429 11.5V16.1H49.7143V11.5H33.1429ZM18.6429 13.8C20.9566 13.8 22.7857 15.8309 22.7857 18.4C22.7857 20.9691 20.9566 23 18.6429 23C16.3291 23 14.5 20.9691 14.5 18.4C14.5 15.8309 16.3291 13.8 18.6429 13.8ZM33.1429 20.7V25.3H49.7143V20.7H33.1429ZM33.1429 29.9V34.5H43.5V29.9H33.1429Z" fill="white"/>
</svg>
